<?xml version="1.0" standalone="no"?><!DOCTYPE svg PUBLIC "-//W3C//DTD SVG 1.1//EN" "http://www.w3.org/Graphics/SVG/1.1/DTD/svg11.dtd"><svg t="1492068736591" class="icon" style="" viewBox="0 0 1024 1024" version="1.1" xmlns="http://www.w3.org/2000/svg" p-id="2370" xmlns:xlink="http://www.w3.org/1999/xlink" width="200" height="200"><defs><style type="text/css"></style></defs><path d="M551.029922 862.823134c0 0-292.109917-372.72291-292.109917-532.49887 0-159.747307 130.794905-289.255916 292.109917-289.255916 161.302733 0 292.090475 129.492236 292.090475 289.255916C843.116303 490.104317 551.029922 862.823134 551.029922 862.823134L551.029922 862.823134 551.029922 862.823134zM547.999912 207.227692c-68.657706 0-124.33989 55.126528-124.33989 123.156948 0 67.99358 55.67502 123.120109 124.33989 123.120109 68.693522 0 124.352169-55.126528 124.352169-123.120109C672.352081 262.374686 616.697527 207.227692 547.999912 207.227692L547.999912 207.227692 547.999912 207.227692zM547.999912 207.227692" p-id="2371" fill="#ffffff"></path></svg>